<svg xmlns="http://www.w3.org/2000/svg" viewBox="0 0 1560 780" width="1560" height="780" font-family="'Avenir Next','Segoe UI',Roboto,sans-serif">
  <defs>
    <radialGradient id="glow" cx="50%" cy="42%" r="62%">
      <stop offset="0%" stop-color="#1a1040" stop-opacity=".85"/>
      <stop offset="55%" stop-color="#0a0a24" stop-opacity=".45"/>
      <stop offset="100%" stop-color="#040714" stop-opacity="0"/>
    </radialGradient>
    <filter id="soft" x="-60%" y="-60%" width="220%" height="220%">
      <feGaussianBlur stdDeviation="9"/>
    </filter>
  </defs>
  <rect width="1560" height="780" fill="#040714"/>
  <rect width="1560" height="780" fill="url(#glow)"/>
  
  <text x="90" y="96" fill="#B015B0" font-size="20" font-weight="700" letter-spacing="3.4">MOSAIC</text>
  <text x="90" y="144" fill="#f9f9f9" font-size="42" font-weight="700" letter-spacing="-.4">One pool, three engines</text>
  <text x="90" y="180" fill="rgba(255,255,255,.46)" font-size="21">The same eight photos; only the layout function changes</text><rect x="90" y="300" width="420" height="280" rx="12" fill="rgba(255,255,255,.04)" stroke="rgba(255,255,255,.16)"/><rect x="115.2" y="325.2" width="114.8" height="68.1" rx="6" fill="#B015B0" fill-opacity=".28" stroke="#B015B0" stroke-width="2"/><rect x="242.6" y="325.2" width="114.8" height="68.1" rx="6" fill="#B015B0" fill-opacity=".28" stroke="#B015B0" stroke-width="2"/><rect x="370.0" y="325.2" width="114.8" height="68.1" rx="6" fill="#B015B0" fill-opacity=".28" stroke="#B015B0" stroke-width="2"/><rect x="115.2" y="405.9" width="114.8" height="68.1" rx="6" fill="#B015B0" fill-opacity=".28" stroke="#B015B0" stroke-width="2"/><rect x="242.6" y="405.9" width="114.8" height="68.1" rx="6" fill="#B015B0" fill-opacity=".28" stroke="#B015B0" stroke-width="2"/><rect x="370.0" y="405.9" width="114.8" height="68.1" rx="6" fill="#B015B0" fill-opacity=".28" stroke="#B015B0" stroke-width="2"/><rect x="115.2" y="486.7" width="114.8" height="68.1" rx="6" fill="#B015B0" fill-opacity=".28" stroke="#B015B0" stroke-width="2"/><rect x="242.6" y="486.7" width="114.8" height="68.1" rx="6" fill="#B015B0" fill-opacity=".28" stroke="#B015B0" stroke-width="2"/><text x="300" y="626" text-anchor="middle" fill="#f9f9f9" font-size="26" font-weight="600">grid</text><rect x="570" y="300" width="420" height="280" rx="12" fill="rgba(255,255,255,.04)" stroke="rgba(255,255,255,.16)"/><circle cx="780.1" cy="407.7" r="47.4" fill="#B015B0" fill-opacity=".28" stroke="#B015B0" stroke-width="2"/><circle cx="860.7" cy="378.8" r="47.4" fill="#B015B0" fill-opacity=".28" stroke="#B015B0" stroke-width="2"/><circle cx="917.4" cy="419.0" r="47.4" fill="#B015B0" fill-opacity=".28" stroke="#B015B0" stroke-width="2"/><circle cx="850.9" cy="460.7" r="47.4" fill="#B015B0" fill-opacity=".28" stroke="#B015B0" stroke-width="2"/><circle cx="780.1" cy="501.3" r="47.4" fill="#B015B0" fill-opacity=".28" stroke="#B015B0" stroke-width="2"/><circle cx="708.0" cy="460.2" r="47.4" fill="#B015B0" fill-opacity=".28" stroke="#B015B0" stroke-width="2"/><circle cx="642.6" cy="418.3" r="47.4" fill="#B015B0" fill-opacity=".28" stroke="#B015B0" stroke-width="2"/><circle cx="701.0" cy="378.7" r="47.4" fill="#B015B0" fill-opacity=".28" stroke="#B015B0" stroke-width="2"/><text x="780" y="626" text-anchor="middle" fill="#f9f9f9" font-size="26" font-weight="600">heart</text><rect x="1050" y="300" width="420" height="280" rx="12" fill="rgba(255,255,255,.04)" stroke="rgba(255,255,255,.16)"/><g transform="rotate(-12 1118.3 353.5)"><rect x="1040.7" y="306.8" width="155.2" height="93.4" rx="4" fill="#B015B0" fill-opacity=".2" stroke="#B015B0" stroke-width="2"/></g><g transform="rotate(4 1269.7 355.9)"><rect x="1192.1" y="309.2" width="155.2" height="93.4" rx="4" fill="#B015B0" fill-opacity=".2" stroke="#B015B0" stroke-width="2"/></g><g transform="rotate(-5 1384.1 358.2)"><rect x="1306.5" y="311.5" width="155.2" height="93.4" rx="4" fill="#B015B0" fill-opacity=".2" stroke="#B015B0" stroke-width="2"/></g><g transform="rotate(11 1128.9 437.1)"><rect x="1051.3" y="390.4" width="155.2" height="93.4" rx="4" fill="#B015B0" fill-opacity=".2" stroke="#B015B0" stroke-width="2"/></g><g transform="rotate(2 1243.3 439.4)"><rect x="1165.7" y="392.7" width="155.2" height="93.4" rx="4" fill="#B015B0" fill-opacity=".2" stroke="#B015B0" stroke-width="2"/></g><g transform="rotate(-7 1394.6 441.8)"><rect x="1317.0" y="395.1" width="155.2" height="93.4" rx="4" fill="#B015B0" fill-opacity=".2" stroke="#B015B0" stroke-width="2"/></g><g transform="rotate(9 1139.4 520.6)"><rect x="1061.8" y="473.9" width="155.2" height="93.4" rx="4" fill="#B015B0" fill-opacity=".2" stroke="#B015B0" stroke-width="2"/></g><rect x="1176.2" y="476.3" width="155.2" height="93.4" rx="6" fill="#B015B0" fill-opacity=".28" stroke="#B015B0" stroke-width="2"/><text x="1260" y="626" text-anchor="middle" fill="#f9f9f9" font-size="26" font-weight="600">scatter</text><text x="90" y="740" fill="rgba(255,255,255,.34)" font-size="17">Every shape above is the output of computeCells() from js/layouts.js, called at build time.</text>
</svg>